<?xml version="1.0" encoding="utf-8"?>
<svg xmlns="http://www.w3.org/2000/svg" xmlns:xlink="http://www.w3.org/1999/xlink" version= "1.1" width="1920px" height="1300px" viewBox="-600 61 1920 1300">
<g id="layer1">
<g style="fill:rgb(0,174,199); fill-opacity:1.0; stroke-linejoin: miter">
<path d="M-600.001,59.66191L-600.26306,59.687836L-600.8171,1362.0581L1320.2627,1362.3119L1320.8167,59.941498L-600.001,59.66191 Z"/>
</g>
<g>
<g style="fill:rgb(0,0,0); fill-opacity:1.0; stroke-linejoin: miter">
</g>
</g>
<g style="fill:rgb(0,0,0); fill-opacity:1.0; stroke-linejoin: miter">
</g>
<g style="fill:rgb(0,0,0); fill-opacity:1.0; stroke-linejoin: miter">
</g>
<g style="fill:rgb(210,232,195); fill-opacity:0.99607843; stroke-linejoin: miter">
</g>
<g style="fill:rgb(197,83,57); fill-opacity:1.0; stroke-linejoin: miter">
<path d="M-134.5147,440.43503L-134.5147,440.43604L-123.66797,430.62335L385.03094,420.7162L887.9477,426.62024C887.94745,656.94214,899.7448,881.36084,899.7448,1111.6825C556.60175,1111.6827,213.45883,1111.6832,-129.6839,1111.684C-129.68349,881.3613,-136.12225,676.223,-136.12201,445.90015L-110.02803,421.41873L-129.0994,437.46997 Z"/>
</g>
<g style="fill:rgb(33,133,192); fill-opacity:1.0; stroke-linejoin: miter">
<path d="M376.50323,438.5365L629.84296,438.53702L883.1827,438.53754L883.1827,1101.3434Q629.84296,1101.3439,376.50323,1101.3444Q376.50323,769.9404,376.50323,438.5365"/>
</g>
<g style="fill:rgb(162,151,151); fill-opacity:1.0; stroke-linejoin: miter">
<path d="M839.33026,1140.6747L910.7148,1140.6761L982.0988,1140.6757Q982.0988,1161.7269,982.0988,1182.7792Q910.71454,1182.7792,839.33,1182.7797Q839.33026,1161.7269,839.33026,1140.6747 Z"/>
</g>
<g style="fill:rgb(162,151,151); fill-opacity:1.0; stroke-linejoin: miter">
<path d="M191.82733,1117.2909L399.69403,1117.2919L607.56024,1117.2919Q607.56024,1144.7723,607.56024,1172.2523Q399.69403,1172.2528,191.82733,1172.2528Q191.82733,1144.7723,191.82733,1117.2909 Z"/>
</g>
<g style="fill:rgb(162,151,151); fill-opacity:1.0; stroke-linejoin: miter">
<path d="M-235.81317,1134.1556L-150.97919,1134.1571L-66.1452,1134.1581Q-66.1452,1154.3973,-66.1452,1174.6376Q-150.97919,1174.6381,-235.81317,1174.6385Q-235.81317,1154.3973,-235.81317,1134.1556 Z"/>
</g>
<g style="fill:rgb(26,26,26); fill-opacity:1.0; stroke-linejoin: miter">
<path d="M-105.77545,416.40466C-125.58905,416.40466,-141.5412,432.0121,-141.5412,451.39734L-141.54156,1091.5209C-141.54156,1109.9554,-144.14117,1124.9725,-127.35773,1126.4012L-244.9002,1126.4017C-258.81097,1126.4012,-251.6966,1137.2406,-251.6966,1150.704L-251.6966,1166.9047C-251.6966,1180.3676,-240.49811,1191.2069,-226.58746,1191.2069L991.2033,1191.2094C1005.1137,1191.2074,1016.3129,1180.369,1016.3129,1166.9047L1016.3129,1150.705C1016.3129,1137.2411,1023.4267,1126.4017,1009.51605,1126.4017L891.9736,1126.4017C908.757,1124.973,906.1579,1109.9559,906.1579,1091.5223L906.15814,451.39734C906.15814,432.01257,890.20624,416.40466,870.3918,416.40466L-105.7796,416.40515 Z M203.22626,424.891C208.31097,424.891,212.4328,428.9242,212.4328,433.8988C212.4328,438.8734,208.31097,442.90662,203.22626,442.90662C198.14154,442.90662,194.01971,438.8739,194.01971,433.8988C194.01971,428.9242,198.14154,424.891,203.22626,424.891 Z M-106.645935,451.46472L871.2673,451.4657L871.26654,1091.4471L-106.64679,1091.4476L-106.64618,451.46472 Z M223.33002,1126.5155L541.28973,1126.516C540.8149,1133.2914,536.10077,1138.5809,530.31244,1138.5809L234.30731,1138.5819C228.51825,1138.5809,223.80463,1133.2914,223.33002,1126.5155 Z M868.91766,1145.684C876.4062,1145.684,882.477,1151.5604,882.477,1158.8075C882.477,1166.055,876.40546,1171.9305,868.9174,1171.9305C861.4296,1171.9305,855.3588,1166.055,855.3588,1158.8075C855.3588,1151.5604,861.4296,1145.684,868.91766,1145.684 Z M911.6816,1145.6844C919.1694,1145.6844,925.2402,1151.5604,925.2402,1158.808C925.2402,1166.055,919.16986,1171.931,911.68134,1171.931C904.1933,1171.931,898.1232,1166.055,898.1232,1158.808C898.1232,1151.5604,904.1933,1145.6844,911.6816,1145.6844 Z M954.4465,1145.6844C961.934,1145.6844,968.0041,1151.5604,968.0041,1158.808C968.0041,1166.055,961.934,1171.931,954.4465,1171.931C946.95795,1171.931,940.88666,1166.055,940.88666,1158.808C940.88666,1151.5604,946.95795,1145.6844,954.4465,1145.6844 Z M-197.58514,1154.3759L-126.4411,1154.3763C-122.963684,1154.3759,-120.16388,1156.3519,-120.16388,1158.8075C-120.16388,1161.2621,-122.963684,1163.2391,-126.4411,1163.2391L-197.58514,1163.2391C-201.06293,1163.2391,-203.86261,1161.2621,-203.86261,1158.8075C-203.86261,1156.3519,-201.06293,1154.3759,-197.58514,1154.3759 Z"/>
</g>
<g style="fill:rgb(244,161,115); fill-opacity:0.99607843; stroke-linejoin: miter">
<path d="M575.1087,868.7665L465.3726,970.4177L345.62674,1000.42267L188.27234,919.67523Q197.40009,819.856,202.95844,793.6973Q208.87817,757.4751,222.58829,745.05023Q226.31061,741.4922,235.47632,738.03796L447.7901,721.75464L575.1087,868.7665"/>
</g>
<g style="fill:rgb(244,198,172); fill-opacity:1.0; stroke-linejoin: miter">
<path d="M357.4897,673.21313C362.36853,671.4089,367.61572,671.1303,372.74487,670.6249C381.69492,669.81726,390.8716,670.57764,399.34943,673.6759C410.25006,677.6999,421.89694,678.7011,433.19907,681.0342C445.50717,683.81616,457.8199,686.59784,470.18,689.14825C484.65582,691.87354,498.90045,695.65186,513.19696,699.16095C524.30536,701.2203,535.6121,699.0477,546.54584,696.9601C551.76483,695.91144,556.5632,693.5407,561.2343,691.06104C562.27325,693.18646,562.5048,695.57153,563.1093,697.8338C564.00665,701.3904,564.6159,705.02234,565.6976,708.53143C568.72015,716.41406,571.8846,724.24945,574.4018,732.3162C576.3998,738.4609,578.70935,744.5157,580.0602,750.85394C582.1571,760.29034,585.50574,769.3727,588.1836,778.64404C593.25134,800.9788,598.2719,823.3233,603.33966,845.6584C603.4484,846.5603,603.98676,847.5002,603.727,848.407C600.6995,850.01294,598.102,852.3036,596.0616,855.05225C593.6104,858.4103,590.18146,860.8236,587.2109,863.6717C583.6165,867.0392,579.8193,870.1847,575.8238,873.0656C573.24493,874.93616,571.12897,877.91144,567.8466,878.49725C565.48517,876.7261,563.6337,874.3645,561.4989,872.34314C555.0283,865.73553,548.6524,859.0526,542.2857,852.35065C539.40466,849.4177,536.7032,846.2863,533.52924,843.651C526.1048,837.36945,517.4098,832.9157,509.1682,827.84796C495.36755,819.1482,482.1574,809.5652,468.82916,800.1759C452.209,788.5292,435.26297,777.3593,418.3831,766.0903C410.88293,761.1642,403.63794,755.865,396.02927,751.11383C387.30118,745.6683,378.12442,740.6712,368.1353,737.9979C361.87732,736.34973,355.26514,735.7215,348.8655,736.855C342.362,738.0878,335.9954,739.9817,329.82242,742.34784C307.88895,750.717,288.85068,764.9002,267.4603,774.41223C259.36508,778.0724,251.03848,781.2086,242.61276,784.0093C240.14728,784.5948,237.58273,784.014,235.15515,783.50854C232.76062,782.8758,230.11102,782.3138,228.39648,780.37726C226.99384,778.93207,225.53442,777.51526,224.43396,775.81964C223.07373,773.7227,223.14932,771.1251,223.05481,768.73047C223.04535,767.2002,222.84232,765.5377,223.70654,764.1822C225.1377,761.764,227.26776,759.8654,229.40253,758.08026C233.19977,755.015,237.29935,752.35114,241.4461,749.7866C245.17734,747.444,249.09738,745.31396,252.29953,742.2345C263.7953,731.31036,268.46628,715.1909,279.96198,704.26196C284.16077,700.3796,289.5922,698.1835,295.04245,696.71924C308.111,693.1582,321.2691,689.701,333.77563,684.42065C341.79053,680.921,349.23392,676.1743,357.4897,673.2129 Z"/>
</g>
<g style="fill:rgb(244,198,172); fill-opacity:1.0; stroke-linejoin: miter">
<path d="M199.95943,737.19525C201.25827,733.19006,201.655,728.916,203.086,724.95325C209.2731,726.87085,215.74829,727.5651,222.15741,728.28296C233.44531,729.53925,244.85129,729.3834,256.13925,728.2405C253.9714,731.88654,251.2604,735.21625,248.18576,738.13025C245.37561,740.813,241.91833,742.6266,238.66895,744.6905C233.31781,748.0392,227.93835,751.4398,223.29092,755.7424C220.34381,758.56665,217.2644,762.0239,217.27386,766.355C217.32108,770.2655,217.11328,774.43115,218.99301,778.0018C220.45709,780.6608,222.64386,782.81445,224.76453,784.94934C227.15906,787.42413,230.6351,788.312,233.86563,789.1431C237.49762,789.88464,241.40826,790.7112,244.99301,789.32733C255.99753,785.61505,266.851,781.39276,277.24152,776.1785C296.93164,766.4114,315.09613,753.43274,336.01898,746.24445C338.30493,745.5831,340.53888,744.4497,342.9807,744.5489C348.80405,744.5676,354.9061,743.3066,360.484,745.58307C371.52158,749.3804,382.44107,753.95215,391.86823,760.9517C408.1154,773.0804,426.01535,782.6916,443.40063,793.04425C457.98053,801.65906,471.74316,811.5441,485.75153,821.03265C495.0418,827.3711,504.3886,833.62885,513.91956,839.6082C521.66046,844.3028,529.11334,849.48865,536.1412,855.2176C542.1157,859.90265,546.90015,865.8539,552.27014,871.1814C558.9485,877.64703,562.80255,886.34204,565.77325,895.004C567.0533,899.5333,567.06256,904.2988,567.01056,908.96985C566.92084,913.6125,565.0035,917.9292,562.8497,921.9533C560.65344,926.4118,557.5835,930.49713,553.6727,933.59534C552.2229,934.6628,550.45166,935.94275,548.55786,935.3099C539.16376,933.0805,529.9399,929.99176,521.24963,925.7692C506.2022,917.67413,494.59778,904.7757,480.6272,895.141C471.83777,888.93024,462.5477,883.47516,453.21515,878.13354C450.98587,876.95276,448.9172,875.4461,446.56992,874.5157C445.80942,876.0129,444.94046,877.4487,444.095,878.8985C442.35693,878.313,440.0521,880.1031,440.8693,881.9118C442.9096,883.546,445.15768,884.9015,447.27365,886.4458C449.1109,887.5747,450.4664,889.3506,452.48776,890.2007C457.85318,893.87036,463.19482,897.6109,468.93787,900.6809C470.8791,901.6773,472.7682,902.9197,474.98334,903.203C480.12195,908.11017,484.95825,913.3526,490.38013,917.96234C491.2964,918.6566,491.901,919.6342,492.40167,920.6545C494.85278,925.44354,498.42352,929.5289,501.03992,934.21875C502.78766,937.3407,504.27997,940.7506,504.42645,944.38245C504.502,950.59814,504.28943,956.96466,502.11682,962.8683C500.94556,965.91,499.9159,969.1121,497.76233,971.6342C494.919,975.0441,491.17847,977.5897,487.26306,979.62085C486.29022,980.0978,485.32196,980.6549,484.24048,980.8157C475.32336,981.31635,466.23175,979.649,458.21686,975.6581C449.03067,971.19977,441.3935,964.2523,434.1154,957.21967C422.54407,946.1157,411.42618,934.1479,397.4084,926.05756C396.4308,927.7246,395.43893,929.38257,394.5605,931.1063C402.97208,935.91907,410.2786,942.3801,417.30157,948.9969C423.92316,955.28314,430.30872,961.8198,437.10037,967.9267C443.64642,973.79266,450.89627,979.0824,459.10474,982.3553C459.37384,984.6034,459.80374,986.9887,459.27008,989.213C457.6737,991.9478,457.12103,995.0838,456.15277,998.0593C455.25082,1000.4114,453.29538,1002.10693,451.6235,1003.90625C450.23965,1005.4223,448.18045,1005.9749,446.3101,1006.622C441.89413,1007.89734,437.40732,1009.82416,432.71262,1009.09216C430.10083,1008.6199,427.48904,1008.124,424.91504,1007.4864C419.74344,1005.60657,414.85028,1003.03723,409.71173,1001.07745C407.50134,1000.3217,405.77747,998.69696,403.93082,997.3462C396.41177,991.5085,389.52094,984.91064,381.87924,979.2334C377.6522,976.0596,373.43927,972.8574,369.1461,969.7733C363.81384,966.67035,357.40002,966.75055,351.45853,965.86755C351.13733,967.766,350.73114,969.6553,350.60367,971.58234C355.68558,972.3805,361.08392,972.2624,365.81165,974.5105C372.7733,979.64435,379.81055,984.7028,386.4322,990.2758C391.89673,994.93286,397.27142,999.7076,403.07123,1003.9535C403.1846,1008.2135,401.72516,1012.36523,400.1761,1016.2759C398.34824,1017.5747,396.08124,1018.1227,394.09763,1019.15674C389.28485,1021.6883,383.6031,1022.255,378.27557,1021.4947C374.79477,1021.08374,372.22067,1018.5379,369.34918,1016.80475C365.58966,1014.43835,362.08047,1011.6518,358.14148,1009.59283C355.63834,1008.27966,352.82822,1009.2575,350.59885,1010.6318C341.06326,1001.984,334.8195,990.512,326.337,980.9432C325.23654,979.8519,325.51514,977.92505,323.95187,977.1977C320.48523,976.7065,316.94772,976.4184,313.46213,976.801C312.29086,977.08905,311.129,976.72076,309.98132,976.54596C307.92215,976.1869,305.8298,976.0925,303.7518,975.92255C305.21582,973.1454,306.595,970.25964,307.0153,967.11884C307.70013,962.05115,307.46872,956.7566,305.68808,951.92505C304.9276,949.81396,303.90274,947.81586,302.84003,945.8466C301.3004,943.0741,299.9637,940.0751,297.47015,938.0016C293.4413,934.5303,288.5389,931.5361,283.0744,931.38965C279.5511,931.2055,275.92856,931.0118,272.4949,931.99884C270.56323,932.509,268.73547,933.3166,266.8982,934.0818C264.95233,928.69275,262.5862,923.37463,259.0534,918.817C255.34589,913.9948,250.1601,910.06067,244.10986,908.83264C238.69269,907.8172,233.129,908.9886,227.96677,910.6794C224.67947,911.8979,221.23175,913.01715,218.49716,915.29846C216.71661,916.7578,215.48389,918.73193,214.1615,920.5834C204.24791,912.0773,193.81963,903.661,181.3887,899.16473C179.41447,898.3193,176.99637,898.2438,175.56999,896.45374C174.31374,896.2696,173.37383,897.3983,172.48589,898.1164C170.92256,899.5333,169.96848,901.46497,169.27904,903.4345C166.24211,904.49695,163.22884,905.6352,160.18254,906.66003C159.86607,905.588,159.72441,904.478,159.83304,903.3729C160.21085,896.0995,160.5084,888.8262,160.8721,881.55286C160.93823,879.86194,161.45303,878.23737,161.80254,876.5937C166.71443,854.8728,171.62155,833.147,176.52873,811.42615C177.7851,805.1823,180.05215,799.2171,181.84685,793.12445C183.72191,787.6459,184.93094,781.9831,186.37152,776.38635C187.29245,772.35754,188.80388,768.50366,190.06479,764.5742C191.95398,759.0813,193.6024,753.5035,195.76068,748.10986C197.14948,744.4684,198.56647,740.8364,199.9597,737.19507 Z"/>
</g>
<g style="fill:rgb(244,198,172); fill-opacity:1.0; stroke-linejoin: miter">
<path d="M176.59485,925.56635C175.24878,918.2977,176.00446,910.8684,176.20758,903.5384C189.2241,907.3782,199.97832,916.0684,210.11375,924.74445C212.06915,926.25586,213.74109,928.1451,215.86636,929.4296C217.48163,926.5959,218.96469,923.65826,220.9483,921.0512C222.51166,918.9871,225.00067,918.0048,227.32913,917.0792C232.22214,915.1995,237.5119,913.7023,242.79688,914.4674C247.92126,915.4733,252.14832,919.06757,255.11438,923.22845C259.195,928.90076,261.45264,935.6122,263.2426,942.2999C267.81918,940.2926,272.1974,937.33606,277.32178,937.0291C280.0848,936.9535,282.89026,936.9913,285.60126,937.57684C288.57675,938.5498,291.2924,940.25476,293.62558,942.3329C295.50528,943.9009,296.37912,946.2529,297.57864,948.3168C299.5151,951.774,301.22476,955.4909,301.4705,959.5102C301.79623,963.6286,301.5413,967.9975,299.41595,971.6531C297.54562,975.0679,295.28336,978.24634,293.35635,981.6282C298.56583,981.6706,303.81302,981.4722,308.98468,982.22314C314.45395,983.05914,319.41306,985.6615,324.1643,988.3581C325.6567,988.76447,326.39352,990.1814,327.2956,991.31006C333.03403,998.87177,338.30493,1006.8819,345.17206,1013.5035C336.98715,1017.99506,327.52237,1021.48065,318.05273,1019.9316C315.96524,1019.59625,313.82565,1019.52985,311.7712,1019.05774C308.80054,1016.734,307.6056,1012.9272,305.13074,1010.1597C302.5992,1007.31665,299.53403,1005.0068,296.44046,1002.8108C292.9549,1000.4963,289.37012,998.1302,285.28952,997.0204C279.4472,995.7073,273.46317,994.8476,267.8474,992.68463C266.16147,991.9905,264.34778,991.2393,263.28516,989.67596C261.11734,986.66266,258.46295,983.99896,256.59747,980.76843C254.85931,977.77893,255.11438,974.18463,255.0105,970.85956C255.03412,967.9929,254.65155,965.1496,254.47205,962.2968C250.19293,964.0869,247.00037,967.71893,243.0708,970.1229C242.01761,970.7037,240.83685,971.384,239.5899,971.04865C236.45868,970.4677,233.30841,969.915,230.28568,968.9139C226.00668,967.5631,222.35107,964.8756,218.49237,962.6794C216.61267,961.6734,215.29486,959.8363,214.97845,957.725C213.5899,949.61566,212.95233,941.37415,213.02802,933.142C207.95549,934.79504,203.02003,937.8413,197.4988,937.2036C191.31169,936.45276,185.54495,933.8928,179.92934,931.3236C177.71907,930.32715,177.1145,927.7011,176.59502,925.56635 Z"/>
</g>
<g style="fill:rgb(244,198,172); fill-opacity:0.99607843; stroke-linejoin: miter">
<path d="M288.82797,711.1662Q286.52063,711.71765,285.28503,712.3336Q282.04193,713.45325,260.74493,725.1864Q238.35419,734.8756,237.55048,735.99963Q237.6076,736.2311,240.33633,736.5706Q249.41025,737.41003,251.85251,737.5194Q296.41162,738.7902,296.6072,739.13495Q306.86487,738.9019,314.39645,736.2955 Z"/>
</g>
<g style="fill:rgb(244,198,172); fill-opacity:0.99607843; stroke-linejoin: miter">
<path d="M161.45877,903.7126Q163.43056,904.95215,165.1488,905.73895Q177.30037,910.56525,181.69444,912.831L190.59843,917.5291Q192.83777,918.5775,192.68207,918.1311Q193.13239,917.3496,193.59152,912.1514Q193.80551,910.8111,193.7928,901.76746Q194.80688,891.081,195.03557,891.20056L195.2193,886.8938Q195.61934,876.3497,194.15863,873.55273 Z"/>
</g>
<g style="fill:rgb(255,255,255); fill-opacity:0.99607843; stroke-linejoin: miter">
<path d="M535.8503,667.0062L589.625,648.97986L643.39966,630.9534Q681.28516,743.9666,719.17065,856.97986Q665.39636,875.0072,611.6219,893.0345Q573.736,780.0203,535.8503,667.0062"/>
</g>
<g style="fill:rgb(26,26,26); fill-opacity:1.0; stroke-linejoin: miter">
<path d="M576.5537,637.4275L779.24133,566.2246L870.4112,825.74603L667.7241,896.9508L576.5537,637.4275"/>
</g>
<g style="fill:rgb(255,255,255); fill-opacity:0.99607843; stroke-linejoin: miter">
<path d="M224.54282,699.7944L170.76819,681.768L116.99353,663.7417Q79.10835,776.75507,41.22297,889.7687Q94.99744,907.79584,148.77188,925.82306Q186.65738,812.80865,224.54282,699.7944"/>
</g>
<g style="fill:rgb(26,26,26); fill-opacity:1.0; stroke-linejoin: miter">
<path d="M183.83943,670.21564L-18.847923,599.013L-110.01768,858.53503L92.66972,929.7395L183.83943,670.21564"/>
</g>
<g style="fill:rgb(26,26,26); fill-opacity:0.99607843; stroke-linejoin: miter">
<path d="M754.4231,576.3252L820.27325,549.5473L886.12335,522.7694Q891.1176,671.5599,896.1118,820.35034Q848.086,830.3926,800.0602,840.4348L754.4231,576.3252"/>
</g>
<g style="fill:rgb(26,26,26); fill-opacity:0.99607843; stroke-linejoin: miter">
<path d="M86.059235,636.38367L-15.14875,600.4795L-116.35674,564.57526Q-115.97225,719.32666,-115.58777,874.078L86.059235,636.38367"/>
</g>
<g style="fill:rgb(26,26,26); fill-opacity:0.99607843; stroke-linejoin: miter">
<path d="M-15.974985,918.096L-15.9751835,918.0965L-15.975382,918.097L-15.974985,918.096"/>
</g>
<g style="fill:rgb(0,0,0); fill-opacity:0.3137255; stroke-linejoin: miter">
<path d="M1219.4089,1174.1895L1211.7197,1178.2648Q1187.4221,1183.7385,1121.5276,1188.2382L1085.9805,1190.4271Q1047.8333,1192.5552,999.2873,1194.4396Q950.74084,1196.3241,891.7953,1197.9651Q865.04626,1199.0557,703.1957,1201.9092Q636.8159,1202.8989,565.7523,1203.4556Q423.62488,1204.5687,262.76086,1203.9489Q185.99896,1203.5157,116.06799,1202.7118Q-52.7825,1200.3776,-78.35562,1199.4657Q-197.72513,1196.7455,-289.77094,1192.5421Q-473.71426,1184.0773,-463.24884,1172.9402Q-455.1931,1167.1805,-397.7505,1162.4514Q-390.37628,1161.1134,-291.10913,1155.8848Q-247.76251,1153.8785,-194.01654,1152.1158Q-171.19336,1150.9862,-14.279724,1147.5681Q49.757812,1146.3617,118.47955,1145.5885Q255.92297,1144.0422,412.1029,1144.2288Q573.6444,1144.5159,706.2799,1146.564Q772.79553,1147.5532,832.4802,1148.9133Q975.71484,1152.6381,996.165,1153.8279Q1096.3801,1157.708,1153.2134,1162.499Q1215.8716,1167.4996,1219.4089,1174.1895"/>
</g>
</g>
</svg>